<?xml version="1.0" encoding="UTF-8"?>
<svg version="1.1" xmlns="http://www.w3.org/2000/svg" width="480" height="480">
<path d="M0 0 C20.15068232 15.805818 32.94163602 36.29374269 36.12646484 61.82666016 C38.22319124 81.00297032 32.21027244 100.06727406 20.41552734 115.19335938 C19.72974609 116.03898438 19.04396484 116.88460937 18.33740234 117.75585938 C17.67224609 118.62210938 17.00708984 119.48835937 16.32177734 120.38085938 C7.81840219 131.2147892 -2.03650588 140.96302631 -12.83837891 149.49414062 C-15.48683102 151.6151002 -18.04467113 153.80719583 -20.59838867 156.03955078 C-27.92995642 162.4381957 -35.5749755 168.29039297 -43.39794922 174.07080078 C-47.65965503 177.24181129 -51.87780038 180.47017324 -56.10009766 183.69335938 C-56.98745605 184.37043945 -57.87481445 185.04751953 -58.7890625 185.74511719 C-60.55896131 187.09592311 -62.32865777 188.4469942 -64.09814453 189.79833984 C-66.54009008 191.66234588 -68.9838848 193.52389838 -71.42822266 195.38476562 C-81.65555889 203.17622914 -91.81208681 210.93765953 -101.30712891 219.62304688 C-103.32570969 221.45081654 -105.38488118 223.19932131 -107.47509766 224.94335938 C-117.6114083 233.81263119 -126.12075022 244.32498798 -134.28564453 254.98046875 C-136.15107524 257.38568366 -138.06982896 259.74570539 -139.98803711 262.10888672 C-145.01215323 268.30675382 -149.82956625 274.62716593 -154.53759766 281.06835938 C-164.53811652 294.74805423 -174.98009734 308.06336557 -185.72900391 321.16210938 C-187.47397618 323.28922891 -189.18644728 325.42845642 -190.87744141 327.59960938 C-201.35709408 340.95563505 -213.73675306 353.03887714 -227.66259766 362.75585938 C-228.57138672 363.40941406 -229.48017578 364.06296875 -230.41650391 364.73632812 C-247.33449807 376.28587581 -268.89842069 379.582499 -288.93212891 376.13867188 C-312.50684967 370.46467093 -332.61256187 355.00259067 -345.40087891 334.62304688 C-356.53762042 316.06645714 -360.22486883 293.83304046 -355.10009766 272.69335938 C-348.86387527 253.14312586 -336.87749865 238.62201835 -322.60009766 224.31835938 C-321.6905835 223.40699219 -320.78106934 222.495625 -319.84399414 221.55664062 C-313.7444157 215.55737878 -307.35981326 210.07417903 -300.66259766 204.75585938 C-299.39735782 203.72964508 -298.13291478 202.70244682 -296.86962891 201.67382812 C-289.37077619 195.62713419 -281.75091677 189.77156536 -274.02587891 184.01757812 C-267.25680687 178.9708606 -260.55528667 173.83497285 -253.84619141 168.70898438 C-250.59777812 166.22748249 -247.34118577 163.75780075 -244.07275391 161.30273438 C-235.17566053 154.60091078 -226.62545196 147.61853592 -218.30371094 140.21337891 C-216.79477475 138.87324962 -215.27414299 137.54631967 -213.75244141 136.22070312 C-208.61273228 131.70117006 -204.0399884 127.00872826 -199.66259766 121.75585938 C-198.84146484 120.799375 -198.02033203 119.84289062 -197.17431641 118.85742188 C-182.94895325 102.27652702 -169.86846018 84.74339545 -156.78759766 67.25585938 C-149.29414692 57.24084821 -141.65402133 47.38066525 -133.66259766 37.75585938 C-132.87884766 36.78519531 -132.09509766 35.81453125 -131.28759766 34.81445312 C-98.3338966 -5.60687324 -49.26047172 -36.86216797 0 0 Z M-94.66259766 34.75585938 C-105.54842991 49.20299257 -108.36086248 64.05527512 -106.66259766 81.75585938 C-105.83400252 86.08038119 -104.55928322 89.79166875 -102.66259766 93.75585938 C-102.22689453 94.69558594 -101.79119141 95.6353125 -101.34228516 96.60351562 C-94.31376236 110.56454314 -82.85448042 120.3287567 -68.03759766 125.25585938 C-52.75527544 129.28433125 -37.75853525 128.16551312 -23.66259766 120.75585938 C-20.13530403 118.63543465 -16.87368515 116.32809177 -13.66259766 113.75585938 C-12.72480469 113.00755859 -12.72480469 113.00755859 -11.76806641 112.24414062 C-1.48701551 103.03064806 4.45106579 88.42095822 5.57568359 74.88867188 C5.95129808 59.66640057 2.013534 45.70287376 -8.02197266 34.00585938 C-18.79498354 22.76445671 -31.64224242 15.716226 -47.41650391 14.55273438 C-65.70848561 14.247444 -82.42628651 20.93443368 -94.66259766 34.75585938 Z M-189.64697266 156.27929688 C-197.1395586 165.48530363 -198.51052224 175.23064734 -197.87597656 186.72558594 C-196.85802206 196.41129488 -190.94373187 204.62838769 -183.66259766 210.75585938 C-173.24648421 217.10904162 -163.6965867 219.01944184 -151.66259766 217.75585938 C-140.87526321 214.99658529 -133.79139358 209.26604891 -127.94775391 199.99414062 C-122.90606257 191.21332259 -121.30447411 182.50556979 -123.31103516 172.53320312 C-126.46549649 161.00728671 -132.57878824 153.15386259 -142.66259766 146.75585938 C-159.59559224 138.35116133 -177.06516796 143.12559197 -189.64697266 156.27929688 Z M-312.31689453 252.21435547 C-324.01079233 265.60972388 -327.06691132 280.99951008 -325.93310547 298.23779297 C-324.81361131 308.65878826 -320.42773927 317.80548625 -313.66259766 325.75585938 C-312.96650391 326.59761719 -312.27041016 327.439375 -311.55322266 328.30664062 C-301.53784851 339.38068687 -287.27366519 345.49399468 -272.48681641 346.71679688 C-255.7321539 346.94853495 -241.29633072 340.78082574 -229.18994141 329.43945312 C-218.77956382 318.61196525 -213.79682733 305.38210241 -213.22509766 290.44335938 C-213.72564461 273.17448935 -220.3009015 259.0535283 -232.83837891 247.16601562 C-256.53599168 226.94274166 -291.22311017 229.79314245 -312.31689453 252.21435547 Z " fill="#F98C1B" transform="translate(399.66259765625,49.244140625)"/>
<path d="M0 0 C0.66 0 1.32 0 2 0 C10.07607302 45.09468151 7.70011357 89.32069183 -13 131 C-13.34788574 131.7120459 -13.69577148 132.4240918 -14.05419922 133.15771484 C-26.61868218 158.67195325 -45.13939419 182.90151949 -68 200 C-69.13821126 200.87735718 -70.27622047 201.75497652 -71.4140625 202.6328125 C-114.47523979 235.43941036 -167.66275265 248.13155771 -221.08447266 241.2434082 C-226.50153038 240.48486889 -231.72015638 239.42866357 -237 238 C-232.888445 232.86055624 -228.33159571 228.43028872 -223.40332031 224.0847168 C-220.7940458 221.75767513 -218.58581354 219.47478399 -216.55078125 216.65234375 C-214 214 -214 214 -210.828125 213.6328125 C-209.05695313 213.87644531 -209.05695313 213.87644531 -207.25 214.125 C-205.90025015 214.27296324 -204.54995519 214.41601935 -203.19921875 214.5546875 C-202.15580322 214.67215332 -202.15580322 214.67215332 -201.09130859 214.79199219 C-179.44615721 216.94488373 -157.46121941 212.81475576 -137 206 C-136.27876953 205.76410156 -135.55753906 205.52820313 -134.81445312 205.28515625 C-110.80246826 197.30370776 -90.41660743 183.13809915 -72 166 C-71.00033203 165.08154297 -71.00033203 165.08154297 -69.98046875 164.14453125 C-42.37466829 137.77565056 -24.70979103 97.89379014 -22 60 C-22.0221153 57.17369672 -22.22147944 54.37258726 -22.4296875 51.5546875 C-23.9318459 24.53689379 -23.9318459 24.53689379 -18.91015625 17.51953125 C-15.88811795 14.27238624 -12.49479199 11.6859682 -8.79492188 9.25488281 C-6.32319376 7.5268248 -4.55322491 5.41458909 -2.6875 3.0625 C-1.19921875 1.22265625 -1.19921875 1.22265625 0 0 Z " fill="#F6891B" transform="translate(431,185)"/>
<path d="M0 0 C-1.35168247 3.06093091 -2.81960157 5.00963737 -5.30078125 7.2421875 C-5.94853516 7.83386719 -6.59628906 8.42554688 -7.26367188 9.03515625 C-8.2778418 9.94587891 -8.2778418 9.94587891 -9.3125 10.875 C-10.64518313 12.0771293 -11.9746682 13.28281437 -13.30078125 14.4921875 C-13.89028564 15.02183105 -14.47979004 15.55147461 -15.0871582 16.09716797 C-17.2021624 18.08855938 -17.2021624 18.08855938 -19.22729492 21.18920898 C-22 24 -22 24 -25.72265625 24.63354492 C-27.17002054 24.61271303 -28.61715994 24.55977478 -30.0625 24.48046875 C-30.84209076 24.46345917 -31.62168152 24.44644958 -32.42489624 24.42892456 C-34.08914778 24.3912776 -35.75315445 24.34105182 -37.41668701 24.27932739 C-41.74805897 24.12536285 -46.08040301 24.08422774 -50.4140625 24.0390625 C-51.26030182 24.02869461 -52.10654114 24.01832672 -52.97842407 24.00764465 C-93.36127436 23.6451473 -133.09392728 42.54674549 -162 70 C-162.825 70.825 -163.65 71.65 -164.5 72.5 C-166.05561444 74.05561444 -167.63650048 75.58686006 -169.25390625 77.078125 C-191.73032673 98.22345459 -205.68633105 129.19360936 -212 159 C-212.24556641 160.13501953 -212.24556641 160.13501953 -212.49609375 161.29296875 C-214.3941166 170.53210479 -215.13125618 179.39754044 -214.65234375 188.80859375 C-213.43180013 214.90787913 -213.43180013 214.90787913 -218.08203125 221.3671875 C-221.11030708 224.64055276 -224.49366277 227.25968286 -228.19628906 229.72900391 C-230.67969313 231.47894997 -232.52101588 233.59557231 -234.4375 235.9375 C-235.283125 236.948125 -236.12875 237.95875 -237 239 C-239.37855277 235.43217085 -239.87736677 232.13979975 -240.5625 228 C-240.68818359 227.29488281 -240.81386719 226.58976563 -240.94335938 225.86328125 C-249.46776482 176.14502124 -238.01408204 122.85848073 -208.953125 81.5859375 C-206.07949552 77.6337103 -203.07583548 73.79623664 -200 70 C-199.52675293 69.41250977 -199.05350586 68.82501953 -198.56591797 68.21972656 C-189.41946008 56.94067487 -179.49058622 46.90743118 -168 38 C-167.4524707 37.57074219 -166.90494141 37.14148438 -166.34082031 36.69921875 C-156.4635419 29.00148577 -146.07517308 22.81426537 -135 17 C-133.92878906 16.42378906 -132.85757813 15.84757812 -131.75390625 15.25390625 C-116.64624696 7.36184543 -100.55034876 2.78235451 -84 -1 C-83.22333984 -1.18224121 -82.44667969 -1.36448242 -81.64648438 -1.55224609 C-55.69824227 -7.35767426 -25.7801252 -5.64796916 0 0 Z " fill="#F68A1B" transform="translate(284,36)"/>
<path d="M0 0 C1.07185547 38.03101989 -10.68782889 74.19340527 -36 103 C-37.07701172 104.25876953 -37.07701172 104.25876953 -38.17578125 105.54296875 C-64.34834264 135.52751954 -102.28721082 153.12778806 -141.796875 155.84765625 C-146.53405184 156.072961 -151.25904735 156.08550816 -156 156 C-154.69995229 153.24746955 -153.26063693 150.85233414 -151.42578125 148.42578125 C-150.92747803 147.76223633 -150.4291748 147.09869141 -149.91577148 146.41503906 C-148.82960245 144.99063101 -147.7391308 143.56949543 -146.64477539 142.15136719 C-144.36372185 139.18724443 -142.19266603 136.3338051 -140.3203125 133.08984375 C-138.3998442 129.84023779 -136.79017558 127.6188204 -133.11425781 126.34814453 C-129.10782753 125.32297495 -125.05461122 124.63323757 -120.98046875 123.9375 C-92.68519451 118.98731966 -66.61064642 99.18466706 -50.15234375 76.23828125 C-41.6538455 63.45197444 -33.2461581 48.75764379 -31.3125 33.28515625 C-30.18874048 24.62554388 -28.65918362 19.73523679 -21.68676758 14.06176758 C-18.61295405 11.77634826 -15.48596125 9.60621906 -12.27539062 7.51757812 C-9.27689831 5.51772531 -6.45117428 3.32117266 -3.62011719 1.09277344 C-2 0 -2 0 0 0 Z " fill="#F5891A" transform="translate(390,225)"/>
<path d="M0 0 C0.87011719 0.00451172 1.74023438 0.00902344 2.63671875 0.01367188 C4.75784293 0.0253264 6.8789311 0.04325643 9 0.0625 C7.69340512 2.83272508 6.24077915 5.23345325 4.390625 7.671875 C3.88273438 8.34476563 3.37484375 9.01765625 2.8515625 9.7109375 C2.32304687 10.40445313 1.79453125 11.09796875 1.25 11.8125 C0.73695313 12.49054688 0.22390625 13.16859375 -0.3046875 13.8671875 C-1.34691329 15.24460149 -2.39832754 16.61510785 -3.45849609 17.97875977 C-5.03129691 20.03392581 -5.03129691 20.03392581 -6.31103516 22.25366211 C-9.11964108 26.73317834 -11.32592089 28.55499949 -16.4921875 29.91015625 C-18.61461751 30.34140232 -20.74275454 30.74524799 -22.875 31.125 C-33.33212156 33.3125939 -42.54070897 36.11698927 -52 41.0625 C-52.61407715 41.37977051 -53.2281543 41.69704102 -53.86083984 42.02392578 C-61.90831654 46.24207301 -69.14054186 51.0987397 -76 57.0625 C-76.83144531 57.76117188 -77.66289062 58.45984375 -78.51953125 59.1796875 C-98.79780753 76.68566487 -111.49889055 101.0506493 -117 127.0625 C-117.05492797 128.45795459 -117.09988688 129.85385298 -117.1328125 131.25 C-118.42405553 136.92681621 -121.88582923 138.88112039 -126.5 142.125 C-127.27859375 142.69798828 -128.0571875 143.27097656 -128.859375 143.86132812 C-130.43049347 145.01755687 -132.00866131 146.16426821 -133.59375 147.30126953 C-136.86433583 149.69514191 -140.01807636 152.22773097 -143.16992188 154.77514648 C-145 156.0625 -145 156.0625 -147 156.0625 C-148.44436814 114.76427026 -133.4092503 76.64855523 -105.4921875 46.33984375 C-78.18331108 18.03574588 -39.68964228 -0.39628675 0 0 Z " fill="#F5891A" transform="translate(235,78.9375)"/>
<path d="M0 0 C1.32946279 0.71950327 2.64439057 1.46704134 3.9375 2.25 C4.989375 2.806875 6.04125 3.36375 7.125 3.9375 C14.2365414 9.78476738 17.97881218 17.96660766 18.89453125 27.0546875 C19.0749921 36.27459631 15.47078598 44.41109923 9.19921875 51.10546875 C1.8526758 57.7026969 -5.53130471 59.61801277 -15.23046875 59.44921875 C-24.77837529 58.77757291 -30.6523347 54.16835859 -37.0625 47.25 C-38.8066185 44.92294163 -39.84551633 42.93750562 -41.0625 40.25 C-41.475 39.363125 -41.8875 38.47625 -42.3125 37.5625 C-44.34464209 28.58720579 -43.61293286 20.29136195 -39.0625 12.25 C-30.73979991 -0.73248483 -14.38053417 -6.05241337 0 0 Z " fill="#F88B1B" transform="translate(142.0625,310.75)"/>
<path d="M0 0 C7.61234394 4.06470441 13.96093089 10.06085786 17.1328125 18.17578125 C19.49392176 26.4595049 19.19228886 35.10583599 15.5625 42.9375 C11.4316667 50.17620081 5.84594337 55.32412265 -1.9375 58.4375 C-11.31668774 60.6306434 -20.40454683 60.13881689 -28.9375 55.4375 C-35.9927325 49.93809212 -41.1217774 43.33287496 -42.9375 34.4375 C-43.90078461 24.69411303 -42.01807745 15.94500914 -35.9375 8.125 C-26.52509307 -1.54664695 -12.75555843 -5.03624635 0 0 Z " fill="#F88B1B" transform="translate(360.9375,91.5625)"/>
<path d="M0 0 C0.66 0.33 1.32 0.66 2 1 C-0.97 3.97 -3.94 6.94 -7 10 C-7.66 9.67 -8.32 9.34 -9 9 C-8.06725891 7.87105124 -7.12859878 6.74699124 -6.1875 5.625 C-5.66542969 4.99851562 -5.14335937 4.37203125 -4.60546875 3.7265625 C-3 2 -3 2 0 0 Z " fill="#BB6914" transform="translate(332,94)"/>
</svg>
