<?xml version="1.0" encoding="UTF-8"?>
<svg id="Capa_1" data-name="Capa 1" xmlns="http://www.w3.org/2000/svg" width="139.7" height="139.7" viewBox="0 0 139.7 139.7">
  <defs>
    <style>
      .cls-1 {
        fill: oklch(var(--p));
        fill-rule: evenodd;
      }
    </style>
  </defs>
  <g id="element-id-54425">
    <path id="element-id-80052" class="cls-1" d="M85.78,1.82c-5.12-1.2-10.45-1.82-15.93-1.82C31.31,0,0,31.31,0,69.85c0,5.48.62,10.81,1.82,15.93,2.36-2.91,5.06-5.66,7.97-8.33-.32-2.49-.48-5.03-.48-7.61,0-33.45,27.08-60.53,60.53-60.53,2.58,0,5.11.16,7.61.48,2.65-2.91,5.42-5.61,8.33-7.97ZM52.92,52.83c13.62-13.63,27.83-39.93,43.39-48.74,24.08-13.63,52.92,15.21,39.29,39.29-8.8,15.54-35.14,29.78-48.77,43.41-13.63,13.62-27.91,40.01-43.44,48.8-24.1,13.63-52.94-15.21-39.29-39.29,8.78-15.53,35.19-29.85,48.82-43.48h0ZM122.67,45.35c7.8-7.8,7.8-20.51,0-28.31-7.79-7.79-20.52-7.79-28.31,0-7.8,7.8-7.8,20.51,0,28.31,7.8,7.8,20.51,7.8,28.31,0ZM71.6,16.71l-1.75-.02c-29.34,0-53.16,23.82-53.16,53.16l.02,1.74c3.14-2.51,6.39-4.93,9.65-7.34,2.52-19.76,18.16-35.38,37.91-37.89,2.41-3.25,4.83-6.5,7.32-9.65h0ZM100.95,23.64c4.2-4.2,10.93-4.2,15.13,0,4.19,4.19,4.19,10.94,0,15.13-4.18,4.18-10.94,4.18-15.13,0-4.19-4.19-4.19-10.94,0-15.13ZM139.7,69.85c0-5.48-.62-10.81-1.82-15.93-2.36,2.91-5.06,5.68-7.97,8.33.32,2.49.48,5.03.48,7.61,0,33.43-27.11,60.53-60.53,60.53-2.58,0-5.12-.16-7.62-.48-2.65,2.91-5.4,5.61-8.31,7.97,5.12,1.2,10.45,1.82,15.93,1.82,38.55,0,69.85-31.3,69.85-69.85h0ZM79.35,79.35c5.25-5.25,5.25-13.74,0-18.98-5.25-5.25-13.74-5.25-18.98,0-5.25,5.25-5.25,13.74,0,18.98,5.25,5.25,13.74,5.25,18.98,0ZM123.01,69.85l-.02-1.75c-3.14,2.49-6.41,4.91-9.65,7.32-2.49,19.76-18.15,35.41-37.91,37.91-2.41,3.25-4.84,6.5-7.34,9.65l1.76.02c29.34,0,53.16-23.82,53.16-53.16h0ZM45.36,122.66c7.8-7.8,7.8-20.51,0-28.31s-20.52-7.79-28.31,0-7.8,20.51,0,28.31c7.8,7.8,20.51,7.8,28.31,0ZM23.64,100.94c4.2-4.2,10.93-4.2,15.13,0,4.19,4.19,4.19,10.94,0,15.13-4.18,4.18-10.95,4.18-15.13,0s-4.19-10.94,0-15.13Z"/>
  </g>
</svg>